# xmcd
#
# Track frame offsets:
#	182
#	14290
#	27287
#	37677
#	51512
#	63877
#	76847
#	89787
#	101820
#	114105
#	125270
#	143150
#	160527
#	173332
#	184552
#	197882
#	210115
#	222282
#	233322
#	247200
#
# Disc length: 3550 seconds
#
# Revision: 3
# Processed by: cddbd v1.5.1PL0 Copyright (c) Steve Scherf et al.
# Submitted via: audiograbber 1.83.01
#
DISCID=f80ddc14
DTITLE=Various Artist - Country Originals: The Original Country Classics
DYEAR=1994
DGENRE=Misc
TTITLE0=Dolly Parton - I Will Always Love You
TTITLE1=Willie Nelson - Crazy
TTITLE2=Kris Kristofferson - Help Me Make It Through the Night
TTITLE3=John Hartford - Gentle On My Mind
TTITLE4=Fred Neil - Everybody's Talkin'
TTITLE5=Waylon Jennings - Love of the Common People
TTITLE6=Brenda Lee - Always on My Mind
TTITLE7=Don Gibson - I Can't Stop Loving You
TTITLE8=Faron Young - Sweet Dreams
TTITLE9=Marty Robbins - Singing the Blues
TTITLE10=Lee Greenwood - Wind Beneath My Wings
TTITLE11=Ray Price - For the Good Times
TTITLE12=Joe South - Rose Garden
TTITLE13=Jerry Reed - Guitar Man
TTITLE14=John D. Loudermilk - Tobacco Road
TTITLE15=Mac Davis - In The Ghetto
TTITLE16=Wilma Burgess - Misty Blue
TTITLE17=Porter Wagoner - Green Green Grass of Home
TTITLE18=George Jones - Good Year for the Roses
TTITLE19=Nanci Griffith - From a Distance
EXTD=
EXTT0=
EXTT1=
EXTT2=
EXTT3=
EXTT4=
EXTT5=
EXTT6=
EXTT7=
EXTT8=
EXTT9=
EXTT10=
EXTT11=
EXTT12=
EXTT13=
EXTT14=
EXTT15=
EXTT16=
EXTT17=
EXTT18=
EXTT19=
PLAYORDER=
